<?xml version="1.0" encoding="utf-8"?>
<!-- Generator: Adobe Illustrator 25.3.1, SVG Export Plug-In . SVG Version: 6.00 Build 0)  -->
<svg version="1.1" id="Layer_1" xmlns="http://www.w3.org/2000/svg" xmlns:xlink="http://www.w3.org/1999/xlink" x="0px" y="0px"
	 viewBox="0 0 128 128" style="enable-background:new 0 0 128 128;" xml:space="preserve">
<g>
	<path d="M80.6,70.1c0.2,0,0.4,0.1,0.6,0.1c1.2,0,2.4-0.9,2.6-2.1c1.1-5.3,1.8-10.8,2.1-16.2l0,0C86.5,39.2,78.1,28,65.8,25
		c0,0,0,0-0.1,0s0,0-0.1,0c-5.4-1-10.8,1-14.2,5.2c-0.9,1.2-0.7,2.9,0.5,3.8c0.5,0.4,1.1,0.6,1.7,0.6c0.8,0,1.6-0.3,2.1-1
		c2.1-2.7,5.5-3.9,8.9-3.3c9.7,2.4,16.4,11.3,15.9,21.2l0,0c-0.3,5.2-0.9,10.3-2,15.4C78.2,68.4,79.1,69.8,80.6,70.1z"/>
	<path d="M94.3,31.8c-3.1-7.3-7.5-13.7-13.2-19.2l0,0l0,0C76,7.8,69,5.2,62,5.7c-6.8,0.4-13.4,3.8-18,9.2l0,0l0,0l0,0l0,0
		c-8.6,9.8-13.3,22.4-13.3,35.5c0,8.5,5.5,15.6,13.3,17.2c0.2,0,0.4,0.1,0.5,0.1c1.3,0,2.4-0.9,2.7-2.2c0.3-1.5-0.7-2.9-2.1-3.2
		c-5.3-1.1-9-6-9-11.9c0-11.8,4.3-23.1,12-31.9l0,0l0,0c3.7-4.4,8.9-7,14.2-7.4c5.5-0.4,11,1.7,15,5.5c10.3,9.9,16.1,23.7,16,38
		c-0.2,9.2-4.6,17.7-8.5,24.2c0,0,0,0,0,0.1l0,0c-5,9.2-9.6,18.6-13.6,27.7v0.1c-2.1,4.6-5,8-8.8,10.1c-4,2-8.8,1.7-12.5-0.9
		s-5.8-7-5.3-11.5c0.2-1.5-0.9-2.8-2.4-3s-2.8,0.9-3,2.4c-0.7,6.5,2.2,12.8,7.6,16.5c3,2.1,6.6,3.2,10.1,3.2c2.7,0,5.4-0.6,7.9-1.9
		l0,0l0,0l0,0h0.1c4.8-2.7,8.6-7,11.1-12.7v-0.1c4-9,8.5-18.2,13.4-27.3c4.2-7,8.9-16.4,9.2-26.8l0,0l0,0
		C98.8,46.8,97.3,39.1,94.3,31.8z"/>
	<path d="M44,51.4c-0.2,1.5,0.9,2.8,2.3,3c6.8,0.9,12.6,5.6,14.9,12c0.8,2.7,0.4,5.6-1,7.9c-1.5,2.4-3.9,4-6.7,4.5
		C52,79,51,80.4,51.3,81.9c0.2,1.3,1.4,2.3,2.7,2.3c0.2,0,0.3,0,0.5,0c4.3-0.7,8.1-3.3,10.4-7c2.3-3.7,2.9-8.2,1.6-12.4
		c0,0,0,0,0-0.1c0,0,0,0,0-0.1c-1.4-4.1-4-7.8-7.5-10.6c-3.4-2.8-7.5-4.5-11.9-5.1C45.6,48.9,44.2,50,44,51.4z"/>
</g>
</svg>
