<?xml version="1.0" encoding="utf-8"?>
<!-- Generator: Adobe Illustrator 25.3.1, SVG Export Plug-In . SVG Version: 6.00 Build 0)  -->
<svg version="1.1" id="Layer_1" xmlns="http://www.w3.org/2000/svg" xmlns:xlink="http://www.w3.org/1999/xlink" x="0px" y="0px"
	 viewBox="0 0 128 128" style="enable-background:new 0 0 128 128;" xml:space="preserve">
<g>
	<path d="M57.3,50.4L57.3,50.4C57.3,50.5,57.3,50.5,57.3,50.4C57.3,50.5,57.3,50.5,57.3,50.4C57.3,50.5,57.3,50.5,57.3,50.4
		L57.3,50.4C57.2,50.5,57.2,50.5,57.3,50.4L57.3,50.4L57.3,50.4L57.3,50.4L57.3,50.4L57.3,50.4L57.3,50.4L57.3,50.4L57.3,50.4
		c1.3,0.9,2,2.5,1.7,4.1s-1.7,2.8-3.3,2.9c-1.6,0.1-3.1-0.8-3.7-2.3l0,0l0,0l0,0l0,0l0,0l0,0l0,0l0,0l0,0l0,0l0,0l0,0l0,0l0,0
		c-1.7,2.7-2.4,5.9-1.9,9c0.5,3.1,2.1,6,4.5,8s5.4,3.2,8.5,3.2h0.1c3.2,0,6.2-1.2,8.6-3.3c2.4-2.1,3.9-5,4.3-8.1s-0.3-6.3-2-9
		s-4.4-4.6-7.4-5.4C63.5,48.8,60.2,49.1,57.3,50.4z"/>
	<path d="M118.5,63.6C118.5,63.6,118.5,63.5,118.5,63.6c0.1-0.1,0.1-0.2,0.1-0.2s0-0.1,0.1-0.1v-0.1c0,0,0-0.1,0.1-0.1
		c0,0,0,0,0-0.1c0,0,0-0.1,0-0.2c0,0,0,0,0-0.1s0-0.1,0-0.2v-0.1v-0.1v-0.1v-0.1c0-0.1,0-0.1,0-0.2c0,0,0,0,0-0.1c0,0,0-0.1,0-0.2
		c0,0,0,0,0-0.1c0,0,0-0.1-0.1-0.1v-0.1c0,0,0-0.1-0.1-0.1c0,0,0-0.1-0.1-0.1c0,0,0,0,0-0.1l-0.1-0.1l0,0
		c-12.5-18.4-33.3-29.4-55.5-29.4l0,0l0,0l0,0c-20.2,0-39.3,9.1-52,24.7c0,0-0.1,0.1-0.1,0.2c-1.2,1.5-2.3,3-3.4,4.5l0,0L7.3,61
		c0,0,0,0,0,0.1c0,0,0,0.1-0.1,0.1c0,0,0,0.1-0.1,0.1v0.1c0,0,0,0.1-0.1,0.1c0,0,0,0,0,0.1c0,0,0,0.1,0,0.2c0,0,0,0,0,0.1
		s0,0.1,0,0.2v0.1v0.1v0.1v0.1c0,0.1,0,0.1,0,0.2c0,0,0,0,0,0.1c0,0,0,0.1,0,0.2c0,0,0,0,0,0.1c0,0,0,0.1,0.1,0.1v0.1
		c0,0,0,0.1,0.1,0.1c0,0,0,0.1,0.1,0.1c0,0,0,0,0,0.1l0.1,0.1l0,0C20,82.1,40.7,93.1,62.9,93.1s43-11,55.5-29.3l0,0
		C118.4,63.7,118.5,63.7,118.5,63.6z M88.6,62.3c0,14.2-11.5,25.8-25.7,25.8S37.2,76.6,37.2,62.3s11.5-25.8,25.7-25.8l0,0
		C77.1,36.6,88.6,48.1,88.6,62.3z M16,66.7c0.7-1.3,1.1-2.8,1.1-4.3s-0.4-3-1.1-4.3c6.9-8,15.7-14,25.5-17.6
		c-5.7,5.6-9.2,13.4-9.2,21.9c0,8.6,3.5,16.4,9.2,22C31.7,80.7,22.9,74.7,16,66.7z M84.4,84.3c5.7-5.6,9.2-13.4,9.2-22
		s-3.5-16.4-9.2-21.9c11.5,4.2,21.6,11.8,28.9,22C106,72.5,95.8,80.1,84.4,84.3z"/>
</g>
</svg>
