<?xml version="1.0" encoding="utf-8"?>
<!-- Generator: Adobe Illustrator 25.3.1, SVG Export Plug-In . SVG Version: 6.00 Build 0)  -->
<svg version="1.1" id="Layer_1" xmlns="http://www.w3.org/2000/svg" xmlns:xlink="http://www.w3.org/1999/xlink" x="0px" y="0px"
	 viewBox="0 0 128 128" style="enable-background:new 0 0 128 128;" xml:space="preserve">
<path d="M123.2,55.8c-0.3-0.9-0.8-1.7-1.6-2.3l0,0L64.9,12.4l-1.6-1.1l-58.1,42l-0.4,0.3l0,0c-0.7,0.6-1.2,1.4-1.5,2.3
	C3,56.9,3,58,3.3,59c0.3,1.1,1,2,1.9,2.6s1.9,1,3,1h11.2v33.7c0,3.6,0.9,6.9,2.6,9.8s4.2,5.3,7.3,7.1c3.1,1.8,6.4,2.7,9.8,2.6
	c3.4,0,6.7-1,9.8-2.8c2.7-1.6,5.4-3.5,8.1-5.5c2-1.5,4-3.2,5.9-5c2.1,2.2,4.3,4.1,6.5,5.9c2.9,2.3,5.9,4.4,9,6.1
	c3,1.6,6.1,2.5,9.4,2.5c0.1,0,0.2,0,0.3,0c3.4,0,6.6-1,9.6-2.8s5.4-4.2,7-7.1c1.7-2.9,2.5-6.2,2.5-9.7V62.6h11.2c1.1,0,2.2-0.3,3-1
	c0.9-0.6,1.5-1.5,1.9-2.6C123.6,58,123.6,56.9,123.2,55.8z M80.9,109.8c-2.9-1.6-5.6-3.4-8.3-5.6c-2-1.6-4.1-3.5-6-5.4
	c0.4-0.4,0.8-0.8,1.4-1.4l17.2-17.2c2.8-2.8,4.4-6.6,4.4-10.5c0-4-1.5-7.7-4.4-10.5l-0.1-0.1c-2.8-2.8-6.5-4.3-10.5-4.3
	s-7.7,1.5-10.5,4.4l-1.2,1.2l-0.5-0.5c-2.8-2.8-6.6-4.4-10.5-4.4c-4,0-7.7,1.5-10.5,4.4c-2.8,2.8-4.4,6.6-4.4,10.5
	c0,4,1.5,7.7,4.4,10.5l17.7,17.7c-1.8,1.6-3.6,3.2-5.5,4.6c-2.5,1.9-5,3.7-7.5,5.2c-2.2,1.3-4.6,2-7.1,2.1c-2.5,0-4.9-0.6-7.1-1.9
	s-4.1-3-5.3-5.1s-1.9-4.5-1.9-7.1V57.3h-16l54.6-39.5l54.5,39.4h-16v40.2c0,2.6-0.6,4.9-1.8,7c-1.2,2.1-2.9,3.8-5.1,5.1
	c-2.2,1.3-4.6,2-7,2C85.5,111.7,83.2,111.1,80.9,109.8z M45.1,63.6c1.8-1.8,4.2-2.8,6.8-2.8s5,1,6.8,2.8l4.2,4.2l5-5
	c1.8-1.8,4.2-2.8,6.8-2.8s5,1,6.8,2.8c1.8,1.8,2.8,4.2,2.8,6.8c0,2.6-1,5-2.8,6.8L62.9,95L47.5,79.5l-2.4-2.4
	c-1.8-1.8-2.8-4.2-2.8-6.8C42.3,67.8,43.3,65.4,45.1,63.6z"/>
</svg>
