<?xml version="1.0" encoding="utf-8"?>
<!-- Generator: Adobe Illustrator 25.3.1, SVG Export Plug-In . SVG Version: 6.00 Build 0)  -->
<svg version="1.1" id="Layer_1" xmlns="http://www.w3.org/2000/svg" xmlns:xlink="http://www.w3.org/1999/xlink" x="0px" y="0px"
	 viewBox="0 0 128 128" style="enable-background:new 0 0 128 128;" xml:space="preserve">
<g>
	<path d="M97.1,102.1V25.6c0-9.1-7.2-16.5-16.1-16.5H45.6c-8.9,0-16.1,7.4-16.1,16.5v76.5c0,0.1,0,0.2,0,0.2v0.1c0,0.1,0,0.1,0,0.2
		c0,0.2,0,0.4,0,0.5c0.5,8.7,7.5,15.5,16,15.5H81c8.5,0,15.5-6.8,16-15.4c0-0.2,0.1-0.4,0.1-0.5s0-0.1,0-0.2v-0.1
		C97.1,102.2,97.1,102.2,97.1,102.1z M91.4,105.2c-1.3,4.8-5.5,8-10.3,8H45.6c-4.8,0-9-3.3-10.3-8H91.4z M34.9,24.6
		c0.5-5.7,5.1-10.1,10.7-10.1H81c5.6,0,10.2,4.4,10.7,10.1H34.9z M91.8,29.9V100h-57V29.9H91.8z"/>
	<path d="M66.9,16.7H61c-1.5,0-2.6,1.2-2.6,2.6S59.6,22,61,22h5.8c1.5,0,2.6-1.2,2.6-2.6S68.3,16.7,66.9,16.7z"/>
</g>
<g>
	<path d="M43.7,47h32.9c1.4,0,2.5-1.1,2.5-2.5S77.9,42,76.6,42H43.7c-1.4,0-2.5,1.1-2.5,2.5S42.3,47,43.7,47z"/>
	<path d="M83.2,54.2H43.7c-1.4,0-2.5,1.1-2.5,2.5s1.1,2.5,2.5,2.5h39.5c1.4,0,2.5-1.1,2.5-2.5S84.6,54.2,83.2,54.2z"/>
	<path d="M43.7,71.3h30.5c1.4,0,2.5-1.1,2.5-2.5s-1.1-2.5-2.5-2.5H43.7c-1.4,0-2.5,1.1-2.5,2.5S42.3,71.3,43.7,71.3z"/>
	<path d="M76.6,78.4H43.7c-1.4,0-2.5,1.1-2.5,2.5s1.1,2.5,2.5,2.5h32.9c1.4,0,2.5-1.1,2.5-2.5S77.9,78.4,76.6,78.4z"/>
</g>
</svg>
